<mxfile host="app.diagrams.net" modified="2024-05-15T21:39:04.320Z" agent="Mozilla/5.0 (Windows NT 10.0; Win64; x64) AppleWebKit/537.36 (KHTML, like Gecko) Chrome/123.0.0.0 Safari/537.36 OPR/109.0.0.0" etag="K2M6VXNyjgP9X00G-EEl" version="24.4.2" type="device">
  <diagram name="Page-1" id="RTotbi8C4EwSEV28XzKA">
    <mxGraphModel dx="1393" dy="758" grid="1" gridSize="10" guides="1" tooltips="1" connect="1" arrows="1" fold="1" page="1" pageScale="1" pageWidth="850" pageHeight="1100" math="0" shadow="0">
      <root>
        <mxCell id="0" />
        <mxCell id="1" parent="0" />
        <mxCell id="OS5yNtTstuqsKu3GFZPS-26" style="edgeStyle=orthogonalEdgeStyle;rounded=0;orthogonalLoop=1;jettySize=auto;html=1;exitX=0.5;exitY=0;exitDx=0;exitDy=0;entryX=0.5;entryY=0;entryDx=0;entryDy=0;" parent="1" source="OS5yNtTstuqsKu3GFZPS-31" target="OS5yNtTstuqsKu3GFZPS-3" edge="1">
          <mxGeometry relative="1" as="geometry" />
        </mxCell>
        <mxCell id="Iov8bIbnbMfIM1R9dD0a-8" style="edgeStyle=none;curved=1;rounded=0;orthogonalLoop=1;jettySize=auto;html=1;exitX=0.5;exitY=1;exitDx=0;exitDy=0;entryX=0;entryY=0;entryDx=0;entryDy=0;fontSize=12;startSize=8;endSize=8;" parent="1" source="OS5yNtTstuqsKu3GFZPS-2" target="Iov8bIbnbMfIM1R9dD0a-7" edge="1">
          <mxGeometry relative="1" as="geometry" />
        </mxCell>
        <mxCell id="OS5yNtTstuqsKu3GFZPS-2" value="File" style="html=1;dashed=0;whiteSpace=wrap;" parent="1" vertex="1">
          <mxGeometry x="120" y="320" width="100" height="50" as="geometry" />
        </mxCell>
        <mxCell id="OS5yNtTstuqsKu3GFZPS-9" style="edgeStyle=orthogonalEdgeStyle;rounded=0;orthogonalLoop=1;jettySize=auto;html=1;exitX=0;exitY=0.5;exitDx=0;exitDy=0;entryX=1;entryY=0.5;entryDx=0;entryDy=0;" parent="1" source="OS5yNtTstuqsKu3GFZPS-5" target="OS5yNtTstuqsKu3GFZPS-2" edge="1">
          <mxGeometry relative="1" as="geometry" />
        </mxCell>
        <mxCell id="pMJp1EJQcDAcmxkJBn0Q-2" style="edgeStyle=orthogonalEdgeStyle;rounded=0;orthogonalLoop=1;jettySize=auto;html=1;exitX=0.5;exitY=1;exitDx=0;exitDy=0;entryX=0.5;entryY=0;entryDx=0;entryDy=0;" edge="1" parent="1" source="OS5yNtTstuqsKu3GFZPS-3" target="pMJp1EJQcDAcmxkJBn0Q-1">
          <mxGeometry relative="1" as="geometry" />
        </mxCell>
        <mxCell id="OS5yNtTstuqsKu3GFZPS-3" value="Text to Speech" style="shape=ellipse;html=1;dashed=0;whiteSpace=wrap;perimeter=ellipsePerimeter;" parent="1" vertex="1">
          <mxGeometry x="440" y="285" width="120" height="120" as="geometry" />
        </mxCell>
        <mxCell id="OS5yNtTstuqsKu3GFZPS-10" value="" style="edgeStyle=orthogonalEdgeStyle;rounded=0;orthogonalLoop=1;jettySize=auto;html=1;exitX=0;exitY=0.5;exitDx=0;exitDy=0;entryX=1;entryY=0.5;entryDx=0;entryDy=0;" parent="1" source="OS5yNtTstuqsKu3GFZPS-3" target="OS5yNtTstuqsKu3GFZPS-5" edge="1">
          <mxGeometry relative="1" as="geometry">
            <mxPoint x="365" y="345" as="sourcePoint" />
            <mxPoint x="220" y="345" as="targetPoint" />
          </mxGeometry>
        </mxCell>
        <mxCell id="OS5yNtTstuqsKu3GFZPS-5" value="Reads from&lt;div&gt;the File&lt;/div&gt;" style="text;html=1;align=center;verticalAlign=middle;resizable=0;points=[];autosize=1;strokeColor=none;fillColor=none;" parent="1" vertex="1">
          <mxGeometry x="290" y="325" width="90" height="40" as="geometry" />
        </mxCell>
        <mxCell id="OS5yNtTstuqsKu3GFZPS-32" value="" style="edgeStyle=orthogonalEdgeStyle;rounded=0;orthogonalLoop=1;jettySize=auto;html=1;exitX=0.5;exitY=0;exitDx=0;exitDy=0;entryX=0.5;entryY=0;entryDx=0;entryDy=0;" parent="1" source="OS5yNtTstuqsKu3GFZPS-2" target="OS5yNtTstuqsKu3GFZPS-31" edge="1">
          <mxGeometry relative="1" as="geometry">
            <mxPoint x="170" y="320" as="sourcePoint" />
            <mxPoint x="425" y="285" as="targetPoint" />
          </mxGeometry>
        </mxCell>
        <mxCell id="OS5yNtTstuqsKu3GFZPS-31" value="Gives Text File&lt;div&gt;to Read From&lt;/div&gt;" style="shape=parallelogram;html=1;strokeWidth=2;perimeter=parallelogramPerimeter;whiteSpace=wrap;rounded=1;arcSize=12;size=0.23;" parent="1" vertex="1">
          <mxGeometry x="230" y="230" width="140" height="70" as="geometry" />
        </mxCell>
        <mxCell id="Iov8bIbnbMfIM1R9dD0a-7" value="if file&#xa;doesn&#39;t exist" style="rhombus;" parent="1" vertex="1">
          <mxGeometry x="210" y="405" width="100" height="100" as="geometry" />
        </mxCell>
        <mxCell id="Iov8bIbnbMfIM1R9dD0a-15" style="edgeStyle=none;curved=1;rounded=0;orthogonalLoop=1;jettySize=auto;html=1;exitX=0.855;exitY=0.855;exitDx=0;exitDy=0;exitPerimeter=0;entryX=0;entryY=0;entryDx=0;entryDy=0;fontSize=12;startSize=8;endSize=8;" parent="1" source="Iov8bIbnbMfIM1R9dD0a-10" target="Iov8bIbnbMfIM1R9dD0a-14" edge="1">
          <mxGeometry relative="1" as="geometry" />
        </mxCell>
        <mxCell id="Iov8bIbnbMfIM1R9dD0a-10" value="" style="points=[[0.145,0.145,0],[0.5,0,0],[0.855,0.145,0],[1,0.5,0],[0.855,0.855,0],[0.5,1,0],[0.145,0.855,0],[0,0.5,0]];shape=mxgraph.bpmn.event;html=1;verticalLabelPosition=bottom;labelBackgroundColor=#ffffff;verticalAlign=top;align=center;perimeter=ellipsePerimeter;outlineConnect=0;aspect=fixed;outline=eventInt;symbol=error;" parent="1" vertex="1">
          <mxGeometry x="310" y="530" width="50" height="50" as="geometry" />
        </mxCell>
        <mxCell id="Iov8bIbnbMfIM1R9dD0a-11" style="edgeStyle=none;curved=1;rounded=0;orthogonalLoop=1;jettySize=auto;html=1;exitX=1;exitY=1;exitDx=0;exitDy=0;entryX=0.145;entryY=0.145;entryDx=0;entryDy=0;entryPerimeter=0;fontSize=12;startSize=8;endSize=8;" parent="1" source="Iov8bIbnbMfIM1R9dD0a-7" target="Iov8bIbnbMfIM1R9dD0a-10" edge="1">
          <mxGeometry relative="1" as="geometry" />
        </mxCell>
        <mxCell id="Iov8bIbnbMfIM1R9dD0a-19" style="edgeStyle=none;curved=1;rounded=0;orthogonalLoop=1;jettySize=auto;html=1;exitX=1;exitY=0.5;exitDx=0;exitDy=0;entryX=0;entryY=0.75;entryDx=0;entryDy=0;fontSize=12;startSize=8;endSize=8;" parent="1" source="Iov8bIbnbMfIM1R9dD0a-14" target="Iov8bIbnbMfIM1R9dD0a-17" edge="1">
          <mxGeometry relative="1" as="geometry" />
        </mxCell>
        <mxCell id="Iov8bIbnbMfIM1R9dD0a-21" style="edgeStyle=none;curved=1;rounded=0;orthogonalLoop=1;jettySize=auto;html=1;exitX=1;exitY=1;exitDx=0;exitDy=0;entryX=0;entryY=0.25;entryDx=0;entryDy=0;fontSize=12;startSize=8;endSize=8;" parent="1" source="Iov8bIbnbMfIM1R9dD0a-14" target="Iov8bIbnbMfIM1R9dD0a-20" edge="1">
          <mxGeometry relative="1" as="geometry" />
        </mxCell>
        <mxCell id="Iov8bIbnbMfIM1R9dD0a-14" value="Use ProgramÂ &#xa;Again?" style="rhombus;" parent="1" vertex="1">
          <mxGeometry x="370" y="610" width="110" height="110" as="geometry" />
        </mxCell>
        <mxCell id="Iov8bIbnbMfIM1R9dD0a-36" style="edgeStyle=none;curved=1;rounded=0;orthogonalLoop=1;jettySize=auto;html=1;exitX=0.375;exitY=0;exitDx=0;exitDy=0;entryX=1;entryY=1;entryDx=0;entryDy=0;fontSize=12;startSize=8;endSize=8;" parent="1" source="Iov8bIbnbMfIM1R9dD0a-17" target="OS5yNtTstuqsKu3GFZPS-3" edge="1">
          <mxGeometry relative="1" as="geometry" />
        </mxCell>
        <mxCell id="Iov8bIbnbMfIM1R9dD0a-17" value="Yes" style="shape=hexagon;perimeter=hexagonPerimeter2;whiteSpace=wrap;html=1;size=0.25" parent="1" vertex="1">
          <mxGeometry x="600" y="480" width="100" height="50" as="geometry" />
        </mxCell>
        <mxCell id="Iov8bIbnbMfIM1R9dD0a-20" value="No" style="shape=hexagon;perimeter=hexagonPerimeter2;whiteSpace=wrap;html=1;size=0.25" parent="1" vertex="1">
          <mxGeometry x="540" y="735" width="100" height="50" as="geometry" />
        </mxCell>
        <mxCell id="Iov8bIbnbMfIM1R9dD0a-26" value="End" style="shape=ellipse;html=1;dashed=0;whiteSpace=wrap;aspect=fixed;strokeWidth=5;perimeter=ellipsePerimeter;" parent="1" vertex="1">
          <mxGeometry x="700" y="610" width="80" height="80" as="geometry" />
        </mxCell>
        <mxCell id="Iov8bIbnbMfIM1R9dD0a-34" style="edgeStyle=none;curved=1;rounded=0;orthogonalLoop=1;jettySize=auto;html=1;exitX=1;exitY=0.25;exitDx=0;exitDy=0;entryX=0.025;entryY=0.775;entryDx=0;entryDy=0;entryPerimeter=0;fontSize=12;startSize=8;endSize=8;" parent="1" source="Iov8bIbnbMfIM1R9dD0a-20" target="Iov8bIbnbMfIM1R9dD0a-26" edge="1">
          <mxGeometry relative="1" as="geometry" />
        </mxCell>
        <mxCell id="pMJp1EJQcDAcmxkJBn0Q-3" style="edgeStyle=orthogonalEdgeStyle;rounded=0;orthogonalLoop=1;jettySize=auto;html=1;exitX=0.5;exitY=1;exitDx=0;exitDy=0;entryX=0.5;entryY=0;entryDx=0;entryDy=0;" edge="1" parent="1" source="pMJp1EJQcDAcmxkJBn0Q-1" target="Iov8bIbnbMfIM1R9dD0a-14">
          <mxGeometry relative="1" as="geometry" />
        </mxCell>
        <mxCell id="pMJp1EJQcDAcmxkJBn0Q-1" value="&lt;span style=&quot;text-wrap: nowrap;&quot;&gt;Creates Output File&lt;/span&gt;" style="shape=dataStorage;whiteSpace=wrap;html=1;fixedSize=1;" vertex="1" parent="1">
          <mxGeometry x="380" y="460" width="170" height="60" as="geometry" />
        </mxCell>
      </root>
    </mxGraphModel>
  </diagram>
</mxfile>
